<svg width="148" height="46" viewBox="0 0 148 46" fill="none" xmlns="http://www.w3.org/2000/svg">
<mask id="mask0_4189_2649" style="mask-type:luminance" maskUnits="userSpaceOnUse" x="0" y="0" width="46" height="46">
<path d="M45.21 0.394531H0V45.6045H45.21V0.394531Z" fill="white"/>
</mask>
<g mask="url(#mask0_4189_2649)">
<path d="M22.605 45.6045C35.0894 45.6045 45.21 35.484 45.21 22.9995C45.21 10.5151 35.0894 0.394531 22.605 0.394531C10.1206 0.394531 0 10.5151 0 22.9995C0 35.484 10.1206 45.6045 22.605 45.6045Z" fill="url(#paint0_radial_4189_2649)"/>
<path opacity="0.15" d="M22.605 45.6045C10.1403 45.6045 0 35.4642 0 22.9995C0 10.5349 10.1403 0.394531 22.605 0.394531C35.0697 0.394531 45.21 10.5349 45.21 22.9995C45.21 35.4642 35.0697 45.6045 22.605 45.6045ZM22.605 1.90495C10.9689 1.90495 1.50309 11.3708 1.50309 23.0069C1.50309 34.6429 10.9689 44.1088 22.605 44.1088C34.2411 44.1088 43.7069 34.6356 43.7069 22.9995C43.7069 11.3634 34.2411 1.90495 22.605 1.90495Z" fill="black"/>
<path d="M31.9686 18.2191C32.3865 18.3511 32.8117 18.4391 33.1784 18.6076C34.8941 19.3922 35.1874 21.4672 33.7795 22.8603C33.0097 23.6228 32.0419 23.9674 30.9786 24.0334C29.8642 24.0994 28.8376 23.8795 27.8552 23.5422C26.6748 23.1316 25.5749 22.5963 24.5338 21.9658C24.5191 21.9584 24.5191 21.9439 24.4971 21.9145C24.8784 21.8046 25.2595 21.7092 25.6335 21.5919C26.9681 21.1665 28.2438 20.6167 29.2776 19.6634C29.4023 19.5462 29.4829 19.3922 29.5856 19.2529C29.4169 19.2382 29.2557 19.2089 29.087 19.2163C28.0018 19.2823 26.9826 19.6489 26.0001 20.1254C25.3989 20.4187 24.8343 20.7854 24.255 21.1152C24.2185 21.1373 24.1745 21.1593 24.1378 21.1886C24.1157 21.1812 24.0938 21.1739 24.0645 21.1665C24.3065 20.3601 24.5338 19.5535 24.805 18.7543C25.1717 17.6765 25.6703 16.6354 26.4107 15.6748C27.1074 14.7877 27.9798 14.1204 29.1456 13.8418C30.8467 13.4312 32.4304 14.355 32.6504 15.8727C32.7823 16.7234 32.5037 17.4932 31.9686 18.2191Z" fill="#111111"/>
<path d="M14.3716 26.1083C13.9537 25.9764 13.5285 25.8884 13.1619 25.7198C11.4461 24.9351 11.1528 22.8603 12.5606 21.4671C13.3305 20.7046 14.2983 20.3599 15.3615 20.2939C16.476 20.2279 17.5024 20.4479 18.485 20.7853C19.6654 21.1959 20.7653 21.731 21.8064 22.3616C21.8211 22.3689 21.8211 22.3836 21.8432 22.413C21.4618 22.5229 21.0805 22.6183 20.7067 22.7355C19.3721 23.1608 18.0964 23.7108 17.0626 24.6639C16.9379 24.7813 16.8572 24.9353 16.7546 25.0746C16.9232 25.0891 17.0845 25.1185 17.2532 25.1112C18.3384 25.0452 19.3575 24.6786 20.3401 24.202C20.9412 23.9087 21.5058 23.5421 22.085 23.2122C22.1218 23.1902 22.1657 23.1681 22.2024 23.1389C22.2243 23.1462 22.2464 23.1534 22.2758 23.1608C22.0337 23.9674 21.8064 24.7739 21.5352 25.5732C21.1685 26.651 20.67 27.6921 19.9294 28.6527C19.2328 29.5398 18.3603 30.2071 17.1946 30.4857C15.4934 30.8962 13.9097 29.9724 13.6898 28.4546C13.5505 27.6041 13.8291 26.8342 14.3716 26.1083Z" fill="#111111"/>
<path d="M19.2249 13.3648C19.3569 12.9469 19.4449 12.5216 19.6135 12.155C20.398 10.4393 22.473 10.146 23.8662 11.5538C24.6287 12.3237 24.9732 13.2915 25.0392 14.3547C25.1053 15.4692 24.8854 16.4956 24.548 17.4782C24.1374 18.6586 23.6023 19.7585 22.9716 20.7996C22.9642 20.8143 22.9497 20.8143 22.9203 20.8363C22.8104 20.455 22.715 20.0737 22.5977 19.6997C22.1725 18.3653 21.6225 17.0896 20.6694 16.0557C20.552 15.9311 20.398 15.8504 20.2587 15.7478C20.2441 15.9164 20.2148 16.0777 20.2221 16.2464C20.2881 17.3316 20.6547 18.3506 21.1312 19.3332C21.4245 19.9344 21.7912 20.499 22.1211 21.0782C22.1431 21.1149 22.1651 21.1589 22.1944 21.1956C22.187 21.2175 22.1797 21.2396 22.1725 21.2689C21.3659 21.0269 20.5593 20.7996 19.7601 20.5283C18.6823 20.1617 17.6412 19.6631 16.6806 18.9225C15.7935 18.226 15.1262 17.3535 14.8476 16.1878C14.4371 14.4867 15.3609 12.9029 16.8787 12.6829C17.7292 12.551 18.499 12.8296 19.2249 13.3648Z" fill="#111111"/>
<path d="M27.1074 30.9627C26.9754 31.3806 26.8874 31.8059 26.7187 32.1725C25.9342 33.8882 23.8592 34.1815 22.4661 32.7737C21.7035 32.0038 21.3589 31.036 21.2929 29.9728C21.227 28.8583 21.4469 27.8318 21.7842 26.8493C22.1949 25.6689 22.7301 24.569 23.3606 23.5278C23.3679 23.5132 23.3826 23.5132 23.412 23.4912C23.5219 23.8725 23.6173 24.2537 23.7346 24.6277C24.1598 25.9621 24.7097 27.238 25.6629 28.2717C25.7802 28.3963 25.9342 28.477 26.0735 28.5797C26.0882 28.411 26.1176 28.2497 26.1102 28.0811C26.0442 26.996 25.6776 25.9768 25.2011 24.9943C24.9078 24.393 24.5411 23.8284 24.2111 23.2492C24.1892 23.2126 24.1672 23.1687 24.1378 23.1319C24.1451 23.1099 24.1525 23.088 24.1598 23.0586C24.9664 23.3006 25.773 23.5278 26.5721 23.7992C27.6499 24.1658 28.6911 24.6644 29.6516 25.4048C30.5388 26.1015 31.2061 26.9739 31.4847 28.1398C31.8952 29.8408 30.9714 31.4246 29.4536 31.6445C28.6105 31.7765 27.8333 31.4979 27.1074 30.9627Z" fill="#111111"/>
<path d="M20.2148 29.2682L16.9886 34.9139C16.798 35.2513 16.9594 35.6837 17.3332 35.8011L18.0372 36.0285C18.3671 36.1384 18.719 35.9478 18.8144 35.6178L20.6181 29.4369C20.6915 29.1875 20.3467 29.0408 20.2148 29.2682Z" fill="#111111"/>
</g>
<path d="M112.71 14.8066L107.692 26.4298L102.754 14.8066H98.7075L105.749 31.0308H109.472L116.514 14.8066H112.71ZM75.1543 28.0442V14.8066H71.3501V31.0308H83.3291V27.9635H75.1543V28.0442ZM64.5513 27.7213C63.9038 28.0442 63.0944 28.2057 62.285 28.2057C61.5565 28.2057 60.8281 28.0443 60.1806 27.8021C59.5331 27.56 58.9665 27.2371 58.5618 26.7528C58.0762 26.2685 57.7524 25.7035 57.4287 25.1385C57.1858 24.4927 57.024 23.7662 57.024 23.0397C57.024 22.2326 57.1858 21.5869 57.4287 20.9412C57.6715 20.2954 58.0762 19.7304 58.5618 19.3268C59.0474 18.8425 59.614 18.5196 60.1806 18.2774C60.8281 18.0353 61.4756 17.8738 62.285 17.8738C63.0944 17.8738 63.8228 18.0353 64.5513 18.3582C65.2797 18.681 65.8463 19.1654 66.4129 19.7304L68.841 17.4703C68.0316 16.5017 67.1413 15.7753 65.9272 15.291C64.7941 14.8067 63.4991 14.5645 62.1231 14.5645C60.8281 14.5645 59.6949 14.8066 58.6427 15.2102C57.5905 15.6138 56.6193 16.1788 55.8099 16.986C55.0005 17.7124 54.4339 18.6003 53.9483 19.6496C53.5436 20.6989 53.3008 21.829 53.3008 23.0397C53.3008 24.2505 53.5436 25.3805 53.9483 26.4298C54.4339 27.4792 55.0005 28.3671 55.8099 29.0935C56.6193 29.82 57.5096 30.4657 58.6427 30.8693C59.6949 31.2729 60.909 31.4344 62.1231 31.4344C63.58 31.4344 64.7941 31.1921 65.9272 30.7078C67.0604 30.2235 68.0316 29.4971 68.841 28.5285L66.4129 26.2684C65.8463 26.9141 65.2797 27.3984 64.5513 27.7213Z" fill="white"/>
<path d="M98.0599 28.0443V31.1115H85.4335V14.8067H97.7362V17.8739H89.1567V21.3448H96.7649V24.3313H89.1567V28.0443H98.0599Z" fill="white"/>
<path d="M130.516 28.0443V31.1115H117.89V14.8067H130.193V17.8739H121.613V21.3448H129.14V24.3313H121.613V28.0443H130.516Z" fill="white"/>
<path d="M144.276 25.8649C145.328 25.3806 146.138 24.7349 146.785 23.847C147.352 22.9591 147.675 21.9098 147.675 20.699C147.675 19.4883 147.433 18.4389 146.785 17.5511C146.219 16.6632 145.409 16.0174 144.357 15.5331C143.305 15.0488 142.01 14.8067 140.553 14.8067H133.511V31.0308H137.315V26.5106H140.796L143.952 31.0308H147.999L144.276 25.8649ZM142.9 22.7977C142.333 23.282 141.443 23.5241 140.31 23.5241H137.234V17.8739H140.31C141.443 17.8739 142.333 18.1161 142.9 18.6004C143.467 19.0847 143.79 19.8111 143.79 20.699C143.79 21.5869 143.467 22.3134 142.9 22.7977Z" fill="white"/>
<defs>
<radialGradient id="paint0_radial_4189_2649" cx="0" cy="0" r="1" gradientUnits="userSpaceOnUse" gradientTransform="translate(37.2317 33.9696) rotate(-135) scale(38.3933)">
<stop offset="0.2" stop-color="#7FFF47"/>
<stop offset="0.55" stop-color="#F9FF20"/>
<stop offset="0.8" stop-color="#FFDAC0"/>
<stop offset="1" stop-color="#FC76E3"/>
</radialGradient>
</defs>
</svg>
