<svg width="220" height="114" viewBox="0 0 220 114" fill="none" xmlns="http://www.w3.org/2000/svg">
<path fill-rule="evenodd" clip-rule="evenodd" d="M220 108.329C220 111.464 217.316 113.871 214.186 113.712L205.954 113.294C203.348 113.162 201.356 110.939 201.356 108.329V108.329V108.329C201.356 105.719 203.348 103.496 205.954 103.364L214.186 102.946C217.316 102.787 220 105.194 220 108.329V108.329V108.329ZM213.733 97.5827C216.863 97.2625 219.15 94.4333 218.653 91.3265V91.3265C218.159 88.2402 215.147 86.3128 212.087 86.9503L204.012 88.6327C201.457 89.1649 199.832 91.6519 200.243 94.2291V94.2291C200.652 96.7892 202.948 98.6863 205.527 98.4224L213.733 97.5827ZM214.623 74.778C215.614 77.7772 213.789 80.9364 210.734 81.7405L202.781 83.8342C200.282 84.4921 197.728 82.9942 196.92 80.5396V80.5396C196.101 78.0538 197.314 75.3232 199.762 74.3972L207.454 71.4873C210.372 70.3837 213.644 71.8165 214.623 74.778V74.778ZM207.995 59.0671C209.456 61.8812 208.143 65.297 205.24 66.572L197.758 69.8577C195.391 70.897 192.638 69.8269 191.449 67.5314V67.5314C190.24 65.1956 191.01 62.2862 193.295 60.9841L200.395 56.9385C203.103 55.3958 206.558 56.3017 207.995 59.0671V59.0671ZM198.947 44.5812C200.84 47.1388 200.073 50.7274 197.394 52.4443L190.571 56.8168C188.39 58.2144 185.501 57.5919 183.963 55.5077V55.5077C182.393 53.3805 182.699 50.3668 184.765 48.7172L191.097 43.6608C193.534 41.7155 197.092 42.0755 198.947 44.5812V44.5812ZM187.72 31.6678C189.995 33.905 189.793 37.5767 187.406 39.6945L181.397 45.0258C179.455 46.7493 176.499 46.5863 174.65 44.7627V44.7627C172.761 42.8994 172.591 39.8617 174.382 37.904L179.804 31.9774C181.912 29.6733 185.493 29.4783 187.72 31.6678V31.6678ZM174.596 20.6365C177.195 22.4965 177.564 26.1583 175.532 28.6258L170.468 34.7774C168.813 36.787 165.863 37.0882 163.748 35.5701V35.5701C161.59 34.0206 160.946 31.0413 162.411 28.8246L166.804 22.1767C168.53 19.5642 172.05 18.8141 174.596 20.6365V20.6365ZM159.895 11.7594C162.753 13.1943 163.684 16.7522 162.064 19.5093L158.056 26.3317C156.734 28.5817 153.862 29.3436 151.532 28.1697V28.1697C149.16 26.9751 148.055 24.1348 149.15 21.7158L152.414 14.5076C153.71 11.6449 157.087 10.3493 159.895 11.7594V11.7594ZM143.971 5.26445C147.015 6.23683 148.485 9.59834 147.324 12.5754L144.465 19.9047C143.514 22.3441 140.793 23.5546 138.299 22.7555V22.7555C135.774 21.9462 134.232 19.3192 134.926 16.76L136.987 9.16775C137.814 6.12252 140.965 4.30428 143.971 5.26445V5.26445ZM127.212 1.31836C130.364 1.80613 132.333 4.88454 131.663 8.00294L130.019 15.6572C129.466 18.2313 126.963 19.8674 124.362 19.4635V19.4635C121.743 19.0569 119.801 16.7066 120.079 14.0709L120.9 6.2853C121.233 3.13424 124.08 0.833794 127.212 1.31836V1.31836ZM110 0C113.18 0 115.623 2.72304 115.457 5.89885L115.049 13.6888C114.91 16.3374 112.652 18.3609 110 18.3609V18.3609V18.3609C107.348 18.3609 105.09 16.3374 104.951 13.6888L104.543 5.89885C104.377 2.72304 106.82 0 110 0V0V0ZM92.7883 1.31836C95.9196 0.833795 98.7675 3.13425 99.0999 6.28531L99.9213 14.0709C100.199 16.7066 98.2573 19.0569 95.6383 19.4635V19.4635C93.0367 19.8674 90.5337 18.2313 89.9808 15.6572L88.3366 8.00296C87.6668 4.88455 89.6363 1.80613 92.7883 1.31836V1.31836ZM76.0294 5.26446C79.0352 4.30429 82.1863 6.12251 83.0128 9.16773L85.0736 16.76C85.7682 19.3192 84.2259 21.9462 81.7007 22.7555V22.7555C79.2072 23.5546 76.4862 22.3441 75.5347 19.9047L72.6759 12.5754C71.5147 9.59834 72.9854 6.23684 76.0294 5.26446V5.26446ZM60.1047 11.7594C62.913 10.3493 66.2898 11.6449 67.586 14.5076L70.8498 21.7159C71.9451 24.1349 70.8397 26.9751 68.4681 28.1697V28.1697C66.1376 29.3436 63.2659 28.5817 61.944 26.3318L57.9357 19.5093C56.3159 16.7522 57.2469 13.1943 60.1047 11.7594V11.7594ZM45.4038 20.6365C47.9502 18.8141 51.4702 19.5642 53.1965 22.1768L57.5891 28.8246C59.0539 31.0413 58.4101 34.0206 56.2518 35.5701V35.5701C54.1372 37.0882 51.1868 36.787 49.5323 34.7774L44.4678 28.6258C42.4364 26.1583 42.8046 22.4965 45.4038 20.6365V20.6365ZM32.2803 31.6678C34.5071 29.4783 38.0875 29.6733 40.1955 31.9774L45.6176 37.904C47.4086 39.8617 47.2391 42.8994 45.3501 44.7627V44.7627C43.5012 46.5864 40.5451 46.7493 38.6026 45.0258L32.5941 39.6945C30.2073 37.5767 30.005 33.905 32.2803 31.6678V31.6678ZM21.053 44.5812C22.9078 42.0755 26.4663 41.7156 28.9025 43.6608L35.2353 48.7172C37.3013 50.3668 37.6068 53.3805 36.0371 55.5077V55.5077C34.4992 57.5919 31.6099 58.2144 29.4292 56.8169L22.6061 52.4443C19.9269 50.7274 19.1597 47.1388 21.053 44.5812V44.5812ZM12.0053 59.0671C13.4416 56.3017 16.8971 55.3958 19.6046 56.9385L26.7045 60.9841C28.9898 62.2863 29.7599 65.1957 28.5506 67.5315V67.5315C27.3622 69.8269 24.6089 70.897 22.2422 69.8577L14.7602 66.572C11.8568 65.297 10.5438 61.8812 12.0053 59.0671V59.0671ZM5.37748 74.778C6.35606 71.8165 9.62835 70.3837 12.5456 71.4873L20.2378 74.3972C22.6856 75.3232 23.8988 78.0539 23.0801 80.5396V80.5396C22.2716 82.9942 19.7185 84.4921 17.2193 83.8342L9.26605 81.7405C6.21141 80.9364 4.38644 77.7773 5.37748 74.778V74.778ZM1.34706 91.3265C1.84109 88.2402 4.85298 86.3129 7.91287 86.9503L15.9885 88.6327C18.5433 89.1649 20.168 91.652 19.7568 94.2291V94.2291C19.3483 96.7892 17.0519 98.6863 14.4728 98.4224L6.26664 97.5827C3.13666 97.2625 0.849759 94.4333 1.34706 91.3265V91.3265ZM5.81433 102.946C2.68353 102.787 0 105.194 0 108.329V108.329V108.329C0 111.464 2.68353 113.871 5.81432 113.712L14.0461 113.294C16.6524 113.162 18.6441 110.939 18.6441 108.329V108.329V108.329C18.6441 105.719 16.6525 103.496 14.0461 103.364L5.81433 102.946Z" fill="#DBDEE3"/>
<path fill-rule="evenodd" clip-rule="evenodd" d="M21.053 44.5812C22.9078 42.0755 26.4663 41.7156 28.9025 43.6608L35.2353 48.7172C37.3013 50.3668 37.6068 53.3805 36.0371 55.5077V55.5077C34.4992 57.5919 31.6099 58.2144 29.4292 56.8169L22.6061 52.4443C19.9269 50.7274 19.1597 47.1388 21.053 44.5812V44.5812ZM12.0053 59.0671C13.4416 56.3017 16.8971 55.3958 19.6046 56.9385L26.7045 60.9841C28.9898 62.2863 29.7599 65.1957 28.5506 67.5315V67.5315C27.3622 69.8269 24.6089 70.897 22.2422 69.8577L14.7602 66.572C11.8568 65.297 10.5438 61.8812 12.0053 59.0671V59.0671ZM5.37748 74.778C6.35606 71.8165 9.62835 70.3837 12.5456 71.4873L20.2378 74.3972C22.6856 75.3232 23.8988 78.0539 23.0801 80.5397V80.5397C22.2716 82.9942 19.7185 84.4921 17.2193 83.8342L9.26605 81.7405C6.21141 80.9364 4.38644 77.7773 5.37748 74.778V74.778ZM1.34706 91.3265C1.84109 88.2402 4.85298 86.3129 7.91287 86.9503L15.9885 88.6327C18.5433 89.165 20.168 91.652 19.7568 94.2291V94.2291C19.3483 96.7892 17.0519 98.6863 14.4728 98.4224L6.26664 97.5827C3.13666 97.2625 0.849759 94.4333 1.34706 91.3265V91.3265ZM5.81433 102.946C2.68354 102.787 0 105.194 0 108.329V108.329V108.329C0 111.464 2.68353 113.871 5.81432 113.712L14.0461 113.294C16.6524 113.162 18.6441 110.939 18.6441 108.329V108.329V108.329C18.6441 105.719 16.6524 103.496 14.0461 103.364L5.81433 102.946Z" fill="#FF5555"/>
</svg>
