<svg width="220" height="114" viewBox="0 0 220 114" fill="none" xmlns="http://www.w3.org/2000/svg">
<path fill-rule="evenodd" clip-rule="evenodd" d="M201.356 108.329C201.356 110.939 203.348 113.162 205.954 113.294L214.186 113.712C217.316 113.871 220 111.464 220 108.329C220 105.194 217.316 102.787 214.186 102.946L205.954 103.364C203.348 103.496 201.356 105.719 201.356 108.329ZM212.087 86.9503C215.147 86.3128 218.159 88.2402 218.653 91.3265C219.15 94.4333 216.863 97.2625 213.733 97.5827L205.527 98.4224C202.948 98.6863 200.652 96.7892 200.243 94.229C199.832 91.6519 201.457 89.1649 204.012 88.6327L212.087 86.9503ZM196.92 80.5396C197.728 82.9942 200.282 84.4921 202.781 83.8342L210.734 81.7405C213.789 80.9364 215.614 77.7772 214.623 74.778C213.644 71.8165 210.372 70.3837 207.454 71.4873L199.762 74.3972C197.314 75.3232 196.101 78.0538 196.92 80.5396ZM191.449 67.5314C192.638 69.8269 195.391 70.897 197.758 69.8577L205.24 66.572C208.143 65.297 209.456 61.8812 207.995 59.0671C206.558 56.3017 203.103 55.3958 200.395 56.9385L193.295 60.9841C191.01 62.2862 190.24 65.1956 191.449 67.5314ZM174.65 44.7627C176.499 46.5863 179.455 46.7493 181.397 45.0258L187.406 39.6945C189.793 37.5767 189.995 33.905 187.72 31.6678C185.493 29.4783 181.912 29.6733 179.804 31.9774L174.382 37.904C172.591 39.8617 172.761 42.8994 174.65 44.7627ZM163.748 35.5701C165.863 37.0882 168.813 36.787 170.468 34.7774L175.532 28.6258C177.564 26.1583 177.195 22.4965 174.596 20.6365C172.05 18.8141 168.53 19.5642 166.804 22.1767L162.411 28.8246C160.946 31.0413 161.59 34.0206 163.748 35.5701ZM151.532 28.1697C153.862 29.3436 156.734 28.5817 158.056 26.3318L162.064 19.5093C163.684 16.7522 162.753 13.1943 159.895 11.7594C157.087 10.3493 153.71 11.6449 152.414 14.5076L149.15 21.7158C148.055 24.1348 149.16 26.9751 151.532 28.1697ZM138.299 22.7555C140.793 23.5546 143.514 22.3441 144.465 19.9047L147.324 12.5754C148.485 9.59834 147.015 6.23684 143.971 5.26445C140.965 4.30428 137.814 6.12252 136.987 9.16775L134.926 16.76C134.232 19.3192 135.774 21.9462 138.299 22.7555ZM124.362 19.4635C126.963 19.8674 129.466 18.2313 130.019 15.6572L131.663 8.00295C132.333 4.88454 130.364 1.80613 127.212 1.31836C124.08 0.833794 121.233 3.13424 120.9 6.28531L120.079 14.0709C119.801 16.7066 121.743 19.0569 124.362 19.4635ZM110 18.3609C112.652 18.3609 114.91 16.3374 115.049 13.6888L115.457 5.89884C115.623 2.72304 113.18 0 110 0C106.82 0 104.377 2.72304 104.543 5.89885L104.951 13.6888C105.09 16.3374 107.348 18.3609 110 18.3609ZM95.6383 19.4635C98.2573 19.0569 100.199 16.7066 99.9213 14.0709L99.0999 6.28531C98.7674 3.13425 95.9196 0.833795 92.7883 1.31836C89.6363 1.80613 87.6668 4.88455 88.3366 8.00296L89.9808 15.6572C90.5337 18.2313 93.0367 19.8674 95.6383 19.4635ZM81.7007 22.7555C84.2259 21.9462 85.7682 19.3192 85.0736 16.76L83.0128 9.16773C82.1863 6.12251 79.0352 4.30429 76.0294 5.26446C72.9854 6.23684 71.5147 9.59834 72.6759 12.5754L75.5347 19.9047C76.4862 22.3441 79.2072 23.5546 81.7007 22.7555ZM68.4681 28.1697C70.8397 26.9751 71.9451 24.1349 70.8498 21.7159L67.586 14.5076C66.2898 11.6449 62.913 10.3493 60.1047 11.7594C57.2469 13.1943 56.3159 16.7522 57.9357 19.5093L61.944 26.3318C63.2659 28.5817 66.1376 29.3436 68.4681 28.1697ZM56.2518 35.5701C58.4101 34.0206 59.0539 31.0413 57.5891 28.8246L53.1965 22.1768C51.4702 19.5642 47.9502 18.8141 45.4038 20.6365C42.8046 22.4965 42.4364 26.1583 44.4678 28.6258L49.5323 34.7774C51.1868 36.787 54.1372 37.0882 56.2518 35.5701ZM45.3501 44.7627C47.2391 42.8994 47.4086 39.8617 45.6176 37.904L40.1955 31.9774C38.0875 29.6733 34.5071 29.4783 32.2803 31.6678C30.005 33.905 30.2073 37.5767 32.5941 39.6945L38.6026 45.0258C40.5451 46.7493 43.5012 46.5864 45.3501 44.7627ZM36.0371 55.5077C37.6068 53.3805 37.3013 50.3668 35.2353 48.7172L28.9025 43.6608C26.4663 41.7156 22.9078 42.0755 21.053 44.5812C19.1597 47.1388 19.9269 50.7274 22.6061 52.4443L29.4292 56.8169C31.6099 58.2144 34.4992 57.5919 36.0371 55.5077ZM28.5506 67.5315C29.7599 65.1957 28.9898 62.2863 26.7045 60.9841L19.6046 56.9385C16.8971 55.3958 13.4416 56.3017 12.0053 59.0671C10.5438 61.8812 11.8568 65.297 14.7602 66.572L22.2422 69.8577C24.6089 70.897 27.3622 69.8269 28.5506 67.5315ZM23.0801 80.5396C23.8988 78.0539 22.6856 75.3232 20.2378 74.3972L12.5456 71.4873C9.62835 70.3837 6.35606 71.8165 5.37748 74.778C4.38644 77.7773 6.21141 80.9364 9.26605 81.7405L17.2193 83.8342C19.7185 84.4921 22.2716 82.9942 23.0801 80.5396ZM19.7568 94.2291C20.168 91.652 18.5433 89.165 15.9885 88.6327L7.91287 86.9503C4.85298 86.3129 1.84109 88.2402 1.34706 91.3265C0.849759 94.4333 3.13666 97.2625 6.26664 97.5827L14.4728 98.4224C17.0519 98.6863 19.3483 96.7892 19.7568 94.2291ZM0 108.329C0 105.194 2.68354 102.787 5.81433 102.946L14.0461 103.364C16.6524 103.496 18.6441 105.719 18.6441 108.329C18.6441 110.939 16.6524 113.162 14.0461 113.294L5.81432 113.712C2.68353 113.871 0 111.464 0 108.329Z" fill="#DBDEE3"/>
<path d="M184.765 48.7172C182.699 50.3668 182.393 53.3805 183.963 55.5077C185.501 57.5919 188.39 58.2144 190.571 56.8168L197.394 52.4443C200.073 50.7274 200.84 47.1388 198.947 44.5812C197.092 42.0755 193.534 41.7155 191.097 43.6608L184.765 48.7172Z" fill="#DBDEE3"/>
</svg>
