<svg width="20" height="20" viewBox="0 0 20 20" fill="none" xmlns="http://www.w3.org/2000/svg">
<path d="M18.3327 10.1693V11.8359C18.3327 14.193 18.3327 15.3715 17.6004 16.1037C16.8682 16.8359 15.6897 16.8359 13.3327 16.8359H6.66602C4.30899 16.8359 3.13048 16.8359 2.39825 16.1037C1.66602 15.3715 1.66602 14.193 1.66602 11.8359L1.66602 10.1693" stroke="#26B14D" stroke-width="2" stroke-linecap="round"/>
<path d="M10.6754 13.8996C10.3428 14.3605 9.65658 14.3605 9.32397 13.8996L7.34462 11.1569C6.94687 10.6058 7.34069 9.83594 8.02036 9.83594H11.9791C12.6587 9.83594 13.0525 10.6058 12.6548 11.1569L10.6754 13.8996Z" fill="#26B14D"/>
<path fill-rule="evenodd" clip-rule="evenodd" d="M10 2.16992C10.5523 2.16992 11 2.61764 11 3.16992V11.5033C11 12.0555 10.5523 12.5033 10 12.5033C9.44772 12.5033 9 12.0555 9 11.5033V3.16992C9 2.61764 9.44772 2.16992 10 2.16992Z" fill="#26B14D"/>
</svg>
