<svg width="24" height="24" viewBox="0 0 24 24" fill="none" xmlns="http://www.w3.org/2000/svg">
<path d="M14.3592 16.1667C14.1458 16.1667 13.9325 16.085 13.77 15.9225C13.4442 15.5967 13.4442 15.07 13.77 14.7442L15.9225 12.5917C16.0792 12.4342 16.1667 12.225 16.1667 12.0017C16.1667 11.7783 16.08 11.57 15.9225 11.4125L13.77 9.25917C13.4442 8.93333 13.4442 8.40583 13.77 8.08083C14.0958 7.755 14.6225 7.755 14.9483 8.08083L17.1008 10.2333C17.5725 10.705 17.8333 11.3333 17.8333 12.0008C17.8333 12.6683 17.5733 13.2967 17.1008 13.7692L14.9483 15.9217C14.7858 16.0842 14.5725 16.1667 14.3592 16.1667ZM10.23 15.9183C10.5558 15.5925 10.5558 15.0658 10.23 14.74L8.0775 12.5875C7.92 12.43 7.83333 12.2208 7.83333 11.9975C7.83333 11.7742 7.92 11.5658 8.0775 11.4083L10.23 9.25583C10.5558 8.93 10.5558 8.40333 10.23 8.0775C9.90417 7.75167 9.3775 7.75167 9.05167 8.0775L6.89917 10.23C6.42667 10.7025 6.16667 11.33 6.16667 11.9983C6.16667 12.6667 6.42667 13.2942 6.89917 13.7667L9.05167 15.9192C9.21417 16.0817 9.4275 16.1633 9.64083 16.1633C9.85417 16.1633 10.0675 16.0808 10.23 15.9183ZM22 17.8333V6.16667C22 3.86917 20.1308 2 17.8333 2H6.16667C3.86917 2 2 3.86917 2 6.16667V17.8333C2 20.1308 3.86917 22 6.16667 22H17.8333C20.1308 22 22 20.1308 22 17.8333ZM17.8333 3.66667C19.2117 3.66667 20.3333 4.78833 20.3333 6.16667V17.8333C20.3333 19.2117 19.2117 20.3333 17.8333 20.3333H6.16667C4.78833 20.3333 3.66667 19.2117 3.66667 17.8333V6.16667C3.66667 4.78833 4.78833 3.66667 6.16667 3.66667H17.8333Z" fill="#F5F7FB"/>
</svg>
