<svg width="25" height="24" viewBox="0 0 25 24" fill="none" xmlns="http://www.w3.org/2000/svg">
<path d="M18.25 3.5H13.75C11.6823 3.5 10 5.18225 10 7.25V11.75C10 13.8177 11.6823 15.5 13.75 15.5H18.25C20.3177 15.5 22 13.8177 22 11.75V7.25C22 5.18225 20.3177 3.5 18.25 3.5ZM20.5 11.75C20.5 12.9905 19.4905 14 18.25 14H13.75C12.5095 14 11.5 12.9905 11.5 11.75V7.25C11.5 6.0095 12.5095 5 13.75 5H18.25C19.4905 5 20.5 6.0095 20.5 7.25V11.75ZM16 17.75C16 19.8177 14.3177 21.5 12.25 21.5H7.75C5.68225 21.5 4 19.8177 4 17.75V13.25C4 11.1823 5.68225 9.5 7.75 9.5C8.16475 9.5 8.5 9.836 8.5 10.25C8.5 10.664 8.16475 11 7.75 11C6.5095 11 5.5 12.0095 5.5 13.25V17.75C5.5 18.9905 6.5095 20 7.75 20H12.25C13.4905 20 14.5 18.9905 14.5 17.75C14.5 17.336 14.8353 17 15.25 17C15.6647 17 16 17.336 16 17.75Z" fill="white"/>
</svg>
