<svg width="24" height="24" viewBox="0 0 24 24" fill="none" xmlns="http://www.w3.org/2000/svg">
<mask id="path-1-inside-1_4027_16476" fill="white">
<path d="M11.9273 14.9997C12.5483 14.9997 13.0523 15.5037 13.0523 16.1247C13.0523 16.7458 12.5483 17.2498 11.9273 17.2498C11.3063 17.2498 10.8023 16.7458 10.8023 16.1247C10.8023 15.5037 11.3063 14.9997 11.9273 14.9997ZM12.6773 13.4996C12.6773 13.0788 12.9833 12.5808 13.3733 12.3655C14.4983 11.746 15.1035 10.4731 14.88 9.19808C14.6678 7.98826 13.6748 6.99445 12.4643 6.78219C11.5778 6.62918 10.6793 6.86619 9.99752 7.43772C9.31727 8.01001 8.92652 8.84705 8.92652 9.73511C8.92652 10.1499 9.26252 10.4851 9.67652 10.4851C10.0905 10.4851 10.4265 10.1499 10.4265 9.73511C10.4265 9.29108 10.6215 8.87256 10.962 8.58604C11.3078 8.29652 11.751 8.17952 12.2048 8.25977C12.795 8.36328 13.2983 8.86731 13.4018 9.45684C13.5165 10.1101 13.221 10.7357 12.6488 11.0507C11.7818 11.5285 11.1765 12.535 11.1765 13.4988C11.1765 13.9136 11.5125 14.2489 11.9265 14.2489C12.3405 14.2489 12.6765 13.9136 12.6765 13.4988L12.6773 13.4996ZM20.9993 17.2498V12.2545C20.9993 7.39497 17.3213 3.33949 12.6263 3.01997C10.02 2.84746 7.47002 3.79852 5.63102 5.63987C3.79203 7.48198 2.84103 10.0329 3.02178 12.64C3.35178 17.4058 7.56077 21 12.8123 21H17.25C19.3178 21 20.9993 19.3177 20.9993 17.2498ZM12.525 4.51706C16.4363 4.78257 19.4993 8.18102 19.4993 12.2537V17.249C19.4993 18.4896 18.4898 19.4992 17.2493 19.4992H12.8115C8.28527 19.4992 4.79702 16.571 4.51727 12.5358C4.36652 10.3614 5.15852 8.23427 6.69152 6.69968C8.10302 5.28585 10.0178 4.49906 12.0105 4.49906C12.1815 4.49906 12.3533 4.50506 12.5243 4.51631L12.525 4.51706Z"/>
</mask>
<path d="M11.9273 14.9997C12.5483 14.9997 13.0523 15.5037 13.0523 16.1247C13.0523 16.7458 12.5483 17.2498 11.9273 17.2498C11.3063 17.2498 10.8023 16.7458 10.8023 16.1247C10.8023 15.5037 11.3063 14.9997 11.9273 14.9997ZM12.6773 13.4996C12.6773 13.0788 12.9833 12.5808 13.3733 12.3655C14.4983 11.746 15.1035 10.4731 14.88 9.19808C14.6678 7.98826 13.6748 6.99445 12.4643 6.78219C11.5778 6.62918 10.6793 6.86619 9.99752 7.43772C9.31727 8.01001 8.92652 8.84705 8.92652 9.73511C8.92652 10.1499 9.26252 10.4851 9.67652 10.4851C10.0905 10.4851 10.4265 10.1499 10.4265 9.73511C10.4265 9.29108 10.6215 8.87256 10.962 8.58604C11.3078 8.29652 11.751 8.17952 12.2048 8.25977C12.795 8.36328 13.2983 8.86731 13.4018 9.45684C13.5165 10.1101 13.221 10.7357 12.6488 11.0507C11.7818 11.5285 11.1765 12.535 11.1765 13.4988C11.1765 13.9136 11.5125 14.2489 11.9265 14.2489C12.3405 14.2489 12.6765 13.9136 12.6765 13.4988L12.6773 13.4996ZM20.9993 17.2498V12.2545C20.9993 7.39497 17.3213 3.33949 12.6263 3.01997C10.02 2.84746 7.47002 3.79852 5.63102 5.63987C3.79203 7.48198 2.84103 10.0329 3.02178 12.64C3.35178 17.4058 7.56077 21 12.8123 21H17.25C19.3178 21 20.9993 19.3177 20.9993 17.2498ZM12.525 4.51706C16.4363 4.78257 19.4993 8.18102 19.4993 12.2537V17.249C19.4993 18.4896 18.4898 19.4992 17.2493 19.4992H12.8115C8.28527 19.4992 4.79702 16.571 4.51727 12.5358C4.36652 10.3614 5.15852 8.23427 6.69152 6.69968C8.10302 5.28585 10.0178 4.49906 12.0105 4.49906C12.1815 4.49906 12.3533 4.50506 12.5243 4.51631L12.525 4.51706Z" fill="#F5F7FB"/>
<path d="M12.6773 13.4996L-2.40812 28.5841L34.0106 65.0049L34.0106 13.4996H12.6773ZM13.3733 12.3655L3.0823 -6.32158L3.0733 -6.31662L3.0643 -6.31166L13.3733 12.3655ZM14.88 9.19808L35.893 5.51484L35.8924 5.51167L14.88 9.19808ZM12.4643 6.78219L16.1489 -14.2305L16.1208 -14.2355L16.0927 -14.2403L12.4643 6.78219ZM9.99752 7.43772L-3.70793 -8.91073L-3.72208 -8.89887L-3.7362 -8.88698L9.99752 7.43772ZM10.962 8.58604L-2.73408 -7.77025L-2.75375 -7.75378L-2.77338 -7.73726L10.962 8.58604ZM12.2048 8.25977L8.48921 29.2671L8.50459 29.2698L8.51998 29.2725L12.2048 8.25977ZM13.4018 9.45684L-7.61021 13.1457L-7.6099 13.1475L13.4018 9.45684ZM12.6488 11.0507L2.36078 -7.63805L2.35248 -7.63348L12.6488 11.0507ZM12.6765 13.4988L27.7619 -1.58568L-8.65682 -38.0065L-8.65682 13.4988H12.6765ZM12.6263 3.01997L14.0748 -18.2641L14.055 -18.2655L14.0353 -18.2668L12.6263 3.01997ZM5.63102 5.63987L-9.46358 -9.43541L-9.46665 -9.43233L5.63102 5.63987ZM3.02178 12.64L24.3042 11.1664L24.304 11.1646L3.02178 12.64ZM12.525 4.51706L-2.55678 19.6052L3.10011 25.2597L11.0801 25.8014L12.525 4.51706ZM4.51727 12.5358L25.7995 11.0603L25.7995 11.0603L4.51727 12.5358ZM6.69152 6.69968L21.7843 21.7768L21.7889 21.7722L6.69152 6.69968ZM12.5243 4.51631L27.6061 -10.5718L21.9312 -16.2442L13.9248 -16.771L12.5243 4.51631ZM11.9273 36.333C0.764992 36.333 -8.28107 27.2846 -8.28107 16.1247H34.3856C34.3856 3.72281 24.3315 -6.33368 11.9273 -6.33368V36.333ZM-8.28107 16.1247C-8.28107 4.96486 0.76501 -4.08355 11.9273 -4.08355V38.5831C24.3315 38.5831 34.3856 28.5267 34.3856 16.1247H-8.28107ZM11.9273 -4.08355C23.0895 -4.08355 32.1356 4.96486 32.1356 16.1247H-10.5311C-10.5311 28.5267 -0.476989 38.5831 11.9273 38.5831V-4.08355ZM32.1356 16.1247C32.1356 27.2846 23.0895 36.333 11.9273 36.333V-6.33368C-0.477006 -6.33368 -10.5311 3.72281 -10.5311 16.1247H32.1356ZM34.0106 13.4996C34.0106 18.1473 32.4561 21.7423 31.0595 24.0171C29.6268 26.3506 27.2869 29.053 23.6822 31.0427L3.0643 -6.31166C-0.93039 -4.10677 -3.61832 -1.04771 -5.30146 1.69386C-6.94854 4.37669 -8.65607 8.43108 -8.65607 13.4996H34.0106ZM23.6642 31.0526C32.8678 25.9842 37.6729 15.6693 35.893 5.51484L-6.13296 12.8813C-7.46588 5.27695 -3.87126 -2.49227 3.0823 -6.32158L23.6642 31.0526ZM35.8924 5.51167C34.1291 -4.53942 26.2132 -12.4657 16.1489 -14.2305L8.77966 27.7949C1.13628 26.4546 -4.79355 20.5159 -6.13241 12.8845L35.8924 5.51167ZM16.0927 -14.2403C9.15008 -15.4386 1.88176 -13.5967 -3.70793 -8.91073L23.703 23.7862C19.4768 27.3291 14.0054 28.697 8.8358 27.8047L16.0927 -14.2403ZM-3.7362 -8.88698C-9.21834 -4.27495 -12.4068 2.5294 -12.4068 9.73511H30.2599C30.2599 15.1647 27.8529 20.295 23.7312 23.7624L-3.7362 -8.88698ZM-12.4068 9.73511C-12.4068 21.9447 -2.50684 31.8185 9.67652 31.8185V-10.8482C21.0319 -10.8482 30.2599 -1.64491 30.2599 9.73511H-12.4068ZM9.67652 31.8185C21.8599 31.8185 31.7598 21.9447 31.7598 9.73511H-10.9068C-10.9068 -1.64491 -1.67884 -10.8482 9.67652 -10.8482V31.8185ZM31.7598 9.73511C31.7598 15.6005 29.1635 21.1513 24.6974 24.9093L-2.77338 -7.73726C-7.92047 -3.40619 -10.9068 2.98163 -10.9068 9.73511H31.7598ZM24.6581 24.9423C20.0778 28.7777 14.1195 30.2629 8.48921 29.2671L15.9203 -12.7475C9.3825 -13.9039 2.53775 -12.1847 -2.73408 -7.77025L24.6581 24.9423ZM8.51998 29.2725C0.25168 27.8225 -6.16272 21.3906 -7.61021 13.1457L34.4137 5.76793C32.7592 -3.65603 25.3383 -11.096 15.8895 -12.7529L8.51998 29.2725ZM-7.6099 13.1475C-9.04002 5.00565 -5.22684 -3.46113 2.36079 -7.63805L22.9367 29.7394C31.6689 24.9325 36.073 15.2146 34.4134 5.76614L-7.6099 13.1475ZM2.35248 -7.63348C-5.09436 -3.52974 -10.1568 4.50364 -10.1568 13.4988H32.5098C32.5098 17.3823 31.3369 20.647 29.8698 23.0866C28.3954 25.5384 26.1344 27.9773 22.945 29.7348L2.35248 -7.63348ZM-10.1568 13.4988C-10.1568 25.7084 -0.256842 35.5822 11.9265 35.5822V-7.08447C23.2819 -7.08447 32.5098 2.1188 32.5098 13.4988H-10.1568ZM11.9265 35.5822C24.1099 35.5822 34.0098 25.7084 34.0098 13.4988H-8.65682C-8.65682 2.1188 0.571157 -7.08447 11.9265 -7.08447V35.5822ZM-2.40887 28.5833L-2.40812 28.5841L27.7626 -1.58493L27.7619 -1.58568L-2.40887 28.5833ZM42.3326 17.2498V12.2545H-0.334084V17.2498H42.3326ZM42.3326 12.2545C42.3326 -3.24107 30.537 -17.1438 14.0748 -18.2641L11.1778 24.3041C4.10551 23.8228 -0.334084 18.031 -0.334084 12.2545H42.3326ZM14.0353 -18.2668C5.35142 -18.8416 -3.23288 -15.6741 -9.46358 -9.43541L20.7256 20.7151C18.1729 23.2711 14.6886 24.5365 11.2173 24.3067L14.0353 -18.2668ZM-9.46665 -9.43233C-15.6804 -3.20805 -18.8658 5.38485 -18.2605 14.1155L24.304 11.1646C24.5478 14.6809 23.2645 18.172 20.7287 20.7121L-9.46665 -9.43233ZM-18.2606 14.1137C-17.0406 31.7326 -1.89464 42.3333 12.8123 42.3333V-0.333334C17.0162 -0.333334 23.7442 3.07899 24.3042 11.1664L-18.2606 14.1137ZM12.8123 42.3333H17.25V-0.333334H12.8123V42.3333ZM17.25 42.3333C31.1066 42.3333 42.3326 31.093 42.3326 17.2498H-0.334084C-0.334084 7.54231 7.52895 -0.333334 17.25 -0.333334V42.3333ZM11.0801 25.8014C3.10663 25.2601 -1.83408 18.6981 -1.83408 12.2537H40.8326C40.8326 -2.33603 29.7659 -15.695 13.9699 -16.7673L11.0801 25.8014ZM-1.83408 12.2537V17.249H40.8326V12.2537H-1.83408ZM-1.83408 17.249C-1.83408 6.70871 6.7065 -1.83417 17.2493 -1.83417V40.8325C30.273 40.8325 40.8326 30.2705 40.8326 17.249H-1.83408ZM17.2493 -1.83417H12.8115V40.8325H17.2493V-1.83417ZM12.8115 -1.83417C15.1458 -1.83417 18.1091 -1.05787 20.7887 1.19173C23.5588 3.51727 25.522 7.05751 25.7995 11.0603L-16.765 14.0112C-15.573 31.2053 -0.828738 40.8325 12.8115 40.8325V-1.83417ZM25.7995 11.0603C26.0726 14.9994 24.6379 18.9202 21.7843 21.7768L-8.40124 -8.37744C-14.3209 -2.45165 -17.3396 5.72334 -16.765 14.0113L25.7995 11.0603ZM21.7889 21.7722C19.1669 24.3986 15.6367 25.8324 12.0105 25.8324V-16.8343C4.39883 -16.8343 -2.96083 -13.8268 -8.40587 -8.3728L21.7889 21.7722ZM12.0105 25.8324C11.6847 25.8324 11.3884 25.821 11.1237 25.8036L13.9248 -16.771C13.3181 -16.8109 12.6783 -16.8343 12.0105 -16.8343V25.8324ZM-2.55753 19.6044L-2.55678 19.6052L27.6068 -10.571L27.6061 -10.5718L-2.55753 19.6044Z" fill="#F5F7FB" mask="url(#path-1-inside-1_4027_16476)"/>
</svg>
