<svg width="24" height="24" viewBox="0 0 24 24" fill="none" xmlns="http://www.w3.org/2000/svg">
<path d="M20.6187 11.2847C20.2534 10.809 19.6932 10.5356 19.0813 10.5356H18.749V9.09041C18.749 7.08523 17.0669 5.45388 14.9993 5.45388H11.2075C11.092 5.45388 10.975 5.42697 10.8723 5.37752L8.50616 4.22983C8.19568 4.07928 7.8477 4 7.49972 4H5.99982C4.34542 3.99927 3 5.30406 3 6.9085V16.3635C3 18.3687 4.68215 20 6.74977 20H16.1677C17.8371 20 19.28 18.9585 19.769 17.3766L20.9179 12.9284C21.0934 12.3597 20.9839 11.7611 20.6187 11.2847ZM4.49991 16.3635V6.9085C4.49991 6.10628 5.17262 5.45388 5.99982 5.45388H7.49972C7.61522 5.45388 7.73221 5.48079 7.83495 5.53025L10.2011 6.67794C10.5115 6.82849 10.8595 6.90777 11.2075 6.90777H14.9993C16.2397 6.90777 17.2491 7.88672 17.2491 9.08969V10.5348H9.46085C8.18593 10.5348 7.0475 11.3196 6.61928 12.5131L4.97688 17.7046C4.6784 17.3344 4.49991 16.8689 4.49991 16.3635ZM19.472 12.5429L18.3231 16.9904C18.0351 17.9206 17.1689 18.5454 16.1677 18.5454H6.74977C6.59378 18.5454 6.44154 18.5301 6.29455 18.5003L8.04494 12.9662C8.25418 12.3822 8.82414 11.9902 9.4616 11.9902H19.082C19.2635 11.9902 19.3692 12.092 19.4157 12.1531C19.4622 12.2142 19.5327 12.3415 19.472 12.5429Z" fill="#F5F7FB"/>
</svg>
