<svg width="40" height="40" viewBox="0 0 40 40" fill="none" xmlns="http://www.w3.org/2000/svg">
<mask id="mask0_232_31930" style="mask-type:luminance" maskUnits="userSpaceOnUse" x="0" y="0" width="40" height="40">
<path d="M40 0H0V40H40V0Z" fill="white"/>
</mask>
<g mask="url(#mask0_232_31930)">
<path d="M20 40C31.0457 40 40 31.0457 40 20C40 8.9543 31.0457 0 20 0C8.9543 0 0 8.9543 0 20C0 31.0457 8.9543 40 20 40Z" fill="url(#paint0_radial_232_31930)"/>
<path opacity="0.15" d="M20 40C8.97178 40 0 31.0282 0 20C0 8.97178 8.97178 0 20 0C31.0282 0 40 8.97178 40 20C40 31.0282 31.0282 40 20 40ZM20 1.33636C9.70484 1.33636 1.32987 9.71132 1.32987 20.0065C1.32987 30.3016 9.70484 38.6766 20 38.6766C30.2951 38.6766 38.6701 30.2951 38.6701 20C38.6701 9.70484 30.2951 1.33636 20 1.33636Z" fill="black"/>
<path d="M28.2843 15.7708C28.654 15.8876 29.0303 15.9654 29.3546 16.1146C30.8726 16.8087 31.1321 18.6446 29.8865 19.8772C29.2054 20.5518 28.3491 20.8567 27.4084 20.9151C26.4224 20.9734 25.5141 20.7789 24.6449 20.4804C23.6005 20.1172 22.6274 19.6436 21.7063 19.0857C21.6933 19.0792 21.6933 19.0663 21.6738 19.0403C22.0111 18.9431 22.3484 18.8587 22.6793 18.7549C23.86 18.3786 24.9888 17.8921 25.9034 17.0487C26.0138 16.9449 26.085 16.8087 26.1759 16.6854C26.0266 16.6724 25.884 16.6466 25.7348 16.6531C24.7746 16.7114 23.8729 17.0358 23.0036 17.4574C22.4716 17.7169 21.9721 18.0413 21.4596 18.3332C21.4273 18.3527 21.3884 18.3722 21.3559 18.3981C21.3364 18.3916 21.317 18.3851 21.291 18.3786C21.5051 17.6651 21.7063 16.9514 21.9463 16.2443C22.2706 15.2907 22.7118 14.3696 23.3669 13.5197C23.9833 12.7348 24.7551 12.1444 25.7866 11.8979C27.2916 11.5346 28.6929 12.352 28.8875 13.6948C29.0043 14.4474 28.7578 15.1286 28.2843 15.7708Z" fill="#111111"/>
<path d="M12.7141 22.7504C12.3444 22.6337 11.9681 22.5558 11.6438 22.4067C10.1258 21.7124 9.86628 19.8767 11.1118 18.644C11.793 17.9694 12.6493 17.6644 13.5899 17.606C14.576 17.5477 15.4841 17.7423 16.3535 18.0408C17.3979 18.404 18.371 18.8775 19.2921 19.4354C19.3051 19.4419 19.3051 19.4549 19.3246 19.4809C18.9873 19.5782 18.6499 19.6625 18.3191 19.7663C17.1384 20.1425 16.0096 20.6292 15.095 21.4724C14.9846 21.5763 14.9133 21.7125 14.8225 21.8358C14.9716 21.8487 15.1144 21.8747 15.2636 21.8682C16.2238 21.8098 17.1254 21.4854 17.9948 21.0638C18.5266 20.8043 19.0261 20.4799 19.5386 20.188C19.5711 20.1685 19.61 20.149 19.6425 20.1232C19.6619 20.1297 19.6814 20.136 19.7074 20.1425C19.4933 20.8562 19.2921 21.5698 19.0521 22.2769C18.7278 23.2305 18.2866 24.1517 17.6314 25.0015C17.0151 25.7864 16.2431 26.3768 15.2118 26.6233C13.7066 26.9865 12.3055 26.1692 12.1109 24.8263C11.9876 24.0738 12.2341 23.3927 12.7141 22.7504Z" fill="#111111"/>
<path d="M17.01 11.4759C17.1268 11.1061 17.2047 10.7299 17.3538 10.4055C18.0479 8.88749 19.8838 8.628 21.1164 9.87355C21.791 10.5547 22.0959 11.411 22.1543 12.3517C22.2128 13.3378 22.0182 14.2459 21.7197 15.1153C21.3564 16.1596 20.8829 17.1328 20.3249 18.0539C20.3184 18.0669 20.3055 18.0669 20.2795 18.0864C20.1823 17.749 20.0979 17.4116 19.9942 17.0808C19.6179 15.9001 19.1313 14.7714 18.288 13.8566C18.1842 13.7464 18.0479 13.675 17.9247 13.5843C17.9118 13.7334 17.8858 13.8761 17.8923 14.0254C17.9507 14.9855 18.275 15.8871 18.6967 16.7565C18.9562 17.2884 19.2805 17.7879 19.5724 18.3004C19.5919 18.3329 19.6114 18.3718 19.6373 18.4043C19.6308 18.4236 19.6243 18.4431 19.6179 18.4691C18.9043 18.255 18.1907 18.0539 17.4835 17.8139C16.5299 17.4895 15.6088 17.0484 14.7589 16.3931C13.974 15.7769 13.3837 15.0049 13.1372 13.9735C12.7739 12.4684 13.5913 11.0672 14.9342 10.8726C15.6867 10.7558 16.3678 11.0023 17.01 11.4759Z" fill="#111111"/>
<path d="M23.9828 27.045C23.8661 27.4148 23.7882 27.791 23.639 28.1154C22.9448 29.6334 21.109 29.8929 19.8765 28.6473C19.2017 27.9661 18.8968 27.1099 18.8385 26.1691C18.7801 25.1831 18.9747 24.2749 19.2731 23.4056C19.6365 22.3613 20.11 21.3881 20.6678 20.4669C20.6743 20.454 20.6873 20.454 20.7133 20.4345C20.8106 20.7719 20.895 21.1091 20.9987 21.44C21.375 22.6206 21.8615 23.7495 22.7048 24.6641C22.8086 24.7744 22.9448 24.8458 23.0681 24.9366C23.0811 24.7874 23.1071 24.6446 23.1006 24.4955C23.0422 23.5354 22.7178 22.6336 22.2962 21.7644C22.0367 21.2324 21.7123 20.7329 21.4203 20.2204C21.401 20.188 21.3815 20.1491 21.3555 20.1166C21.362 20.0971 21.3685 20.0778 21.375 20.0518C22.0886 20.2659 22.8022 20.4669 23.5092 20.707C24.4628 21.0314 25.3841 21.4725 26.2338 22.1276C27.0188 22.744 27.6092 23.5159 27.8557 24.5474C28.219 26.0524 27.4016 27.4536 26.0587 27.6483C25.3127 27.765 24.6251 27.5185 23.9828 27.045Z" fill="#111111"/>
<path d="M17.8845 25.5462L15.0301 30.5413C14.8615 30.8398 15.0043 31.2224 15.335 31.3263L15.9579 31.5274C16.2498 31.6247 16.5611 31.456 16.6455 31.164L18.2414 25.6954C18.3063 25.4748 18.0013 25.345 17.8845 25.5462Z" fill="#111111"/>
</g>
<defs>
<radialGradient id="paint0_radial_232_31930" cx="0" cy="0" r="1" gradientUnits="userSpaceOnUse" gradientTransform="translate(32.9412 29.7059) rotate(-135) scale(33.9689)">
<stop offset="0.2" stop-color="#7FFF47"/>
<stop offset="0.55" stop-color="#F9FF20"/>
<stop offset="0.8" stop-color="#FFDAC0"/>
<stop offset="1" stop-color="#FC76E3"/>
</radialGradient>
</defs>
</svg>
