<svg width="24" height="24" viewBox="0 0 24 24" fill="none" xmlns="http://www.w3.org/2000/svg">
<path d="M19.4654 5.1236L19.2089 4.41882L19.202 4.42134L19.1951 4.42399C17.9743 4.89567 16.7121 5.3762 15.434 5.86277C11.4664 7.37323 7.34589 8.94193 3.83549 10.4847C3.3356 10.6584 2.94397 10.86 2.67382 11.1128C2.37075 11.3965 2.19493 11.7775 2.26505 12.1994C2.32451 12.5571 2.54077 12.7982 2.66137 12.9133C2.7301 12.9788 2.79502 13.0291 2.84318 13.0635C2.86773 13.081 2.88917 13.0953 2.90621 13.1062C2.91476 13.1117 2.92229 13.1164 2.92866 13.1203L2.93735 13.1255L2.94102 13.1277L2.94269 13.1287L2.94348 13.1291C2.94386 13.1294 2.94424 13.1296 3.32289 12.4822L2.94424 13.1296L3.02522 13.177L3.11537 13.2029L6.12187 14.0686L6.12187 14.0686L6.12668 14.07C6.9273 14.2948 7.57039 14.2896 8.03641 14.2122C8.26775 14.1738 8.4514 14.1183 8.58539 14.0676C8.65233 14.0422 8.70677 14.0181 8.74853 13.9979C8.76941 13.9878 8.78713 13.9788 8.80166 13.971L8.82107 13.9604L8.82898 13.9559L8.83249 13.9539L8.83413 13.9529L8.83492 13.9525C8.83531 13.9523 8.83569 13.952 8.45705 13.3046L8.83569 13.952L8.84753 13.9451L8.8591 13.9378L12.741 11.4726L10.7903 13.2112C10.2944 13.6224 10.0182 14.1472 10.1171 14.7289C10.2027 15.233 10.5435 15.574 10.7589 15.7477C11.3814 16.2596 12.5312 17.0082 13.5097 17.6241C14.0078 17.9376 14.4748 18.2248 14.8275 18.441C14.8895 18.4791 14.9478 18.5147 15.0019 18.5479C15.1026 18.6095 15.1892 18.6626 15.2601 18.7062C15.3652 18.7709 15.4132 18.8013 15.4243 18.8082C15.5967 18.9344 16.0058 19.1916 16.4879 19.4025C16.9528 19.6059 17.6616 19.8469 18.323 19.7094L18.323 19.7094C19.0543 19.5573 19.4396 19.0367 19.6238 18.6449C19.7165 18.4477 19.7694 18.2632 19.7995 18.1298C19.8148 18.062 19.8249 18.0044 19.8314 17.9613C19.8345 17.9407 19.8368 17.9232 19.8385 17.9092L20.9457 11.1314L20.947 11.1233L20.9481 11.1153C21.1085 9.97926 21.2919 8.88448 21.4423 7.99137C21.4497 7.94759 21.457 7.90416 21.4642 7.86111C21.5997 7.05734 21.7129 6.38517 21.7391 6.05315C21.7846 5.55731 21.6901 5.08403 21.3666 4.72847C21.0524 4.38311 20.6411 4.28142 20.3415 4.25703C20.0378 4.23232 19.7525 4.27764 19.5625 4.31937C19.4633 4.34117 19.3798 4.36433 19.3195 4.38258C19.2892 4.39175 19.2642 4.39983 19.2456 4.40608L19.2223 4.41404L19.2144 4.41686L19.2113 4.41795L19.2101 4.41841L19.2095 4.41862C19.2092 4.41872 19.2089 4.41882 19.4654 5.1236Z" stroke="#F5F7FB" stroke-width="1.5"/>
</svg>
