<svg width="24" height="24" viewBox="0 0 24 24" fill="none" xmlns="http://www.w3.org/2000/svg">
<path d="M11.5478 2.75H12.4522C15.777 2.75 18.4722 5.44525 18.4722 8.77001C18.4722 9.05692 18.5708 9.33511 18.7515 9.55801L19.3341 9.08577L18.7515 9.55801L19.0426 9.91722C20.2724 11.4345 20.4278 13.557 19.4321 15.2372L20.0773 15.6196L19.4321 15.2372L19.3733 15.3364C18.6704 16.5226 17.3938 17.25 16.0149 17.25H7.98507C6.60622 17.25 5.32964 16.5226 4.6267 15.3364L4.56793 15.2372C3.57224 13.557 3.72762 11.4345 4.9574 9.91722L5.24854 9.55801C5.42919 9.33512 5.52778 9.05692 5.52778 8.77001C5.52778 5.44525 8.22303 2.75 11.5478 2.75Z" stroke="#F5F7FB" stroke-width="1.5" stroke-linecap="round"/>
<path d="M9 20V20C10.5 22 13.5 22 15 20V20" stroke="#F5F7FB" stroke-width="1.5" stroke-linecap="round"/>
</svg>
