<svg width="20" height="20" viewBox="0 0 20 20" fill="none" xmlns="http://www.w3.org/2000/svg">
<path d="M5.20965 2.13344C5.55011 2.07657 5.83203 1.80221 5.83203 1.45703V1.45703C5.83203 1.11185 5.55081 0.827934 5.20827 0.87056C2.94558 1.15214 1.15214 2.94558 0.87056 5.20827C0.827934 5.55081 1.11185 5.83203 1.45703 5.83203V5.83203C1.80221 5.83203 2.07657 5.55011 2.13344 5.20965C2.3961 3.63722 3.63722 2.3961 5.20965 2.13344Z" fill="white"/>
<path d="M2.13344 14.7877C2.07657 14.4473 1.80221 14.1654 1.45703 14.1654V14.1654C1.11185 14.1654 0.827934 14.4466 0.87056 14.7891C1.15214 17.0518 2.94558 18.8453 5.20827 19.1268C5.55081 19.1695 5.83203 18.8855 5.83203 18.5404V18.5404C5.83203 18.1952 5.55011 17.9208 5.20965 17.864C3.63722 17.6013 2.3961 16.3602 2.13344 14.7877Z" fill="white"/>
<path d="M14.7877 17.864C14.4473 17.9208 14.1654 18.1952 14.1654 18.5404V18.5404C14.1654 18.8855 14.4466 19.1695 14.7891 19.1268C17.0518 18.8453 18.8453 17.0518 19.1268 14.7891C19.1695 14.4466 18.8855 14.1654 18.5404 14.1654V14.1654C18.1952 14.1654 17.9208 14.4473 17.864 14.7877C17.6013 16.3602 16.3602 17.6013 14.7877 17.864Z" fill="white"/>
<path d="M17.864 5.20965C17.9208 5.55011 18.1952 5.83203 18.5404 5.83203V5.83203C18.8855 5.83203 19.1695 5.55081 19.1268 5.20827C18.8453 2.94558 17.0518 1.15214 14.7891 0.87056C14.4466 0.827934 14.1654 1.11185 14.1654 1.45703V1.45703C14.1654 1.80221 14.4473 2.07657 14.7877 2.13344C16.3602 2.3961 17.6013 3.63722 17.864 5.20965Z" fill="white"/>
<rect x="4.79297" y="4.79297" width="3.75" height="3.75" rx="1.04167" stroke="white" stroke-width="1.25"/>
<rect x="4.79297" y="11.457" width="3.75" height="3.75" rx="1.04167" stroke="white" stroke-width="1.25"/>
<rect x="11.457" y="4.79297" width="3.75" height="3.75" rx="1.04167" stroke="white" stroke-width="1.25"/>
<path d="M11.668 15H11.7346C13.2412 15 13.9945 15 14.4755 14.5483C14.501 14.5244 14.5257 14.4997 14.5496 14.4742C15.0013 13.9932 15.0013 13.2399 15.0013 11.7333V11.6667" stroke="white" stroke-width="1.25" stroke-linecap="round"/>
<rect width="2.08333" height="2.08333" rx="1.04167" transform="matrix(1 0 0 -1 11.043 13.125)" fill="white"/>
</svg>
