<svg width="40" height="40" viewBox="0 0 40 40" fill="none" xmlns="http://www.w3.org/2000/svg">
<rect width="40" height="40" rx="20" fill="#26B14D" fill-opacity="0.16"/>
<path d="M28.3327 20.1693V21.8359C28.3327 24.193 28.3327 25.3715 27.6004 26.1037C26.8682 26.8359 25.6897 26.8359 23.3327 26.8359H16.666C14.309 26.8359 13.1305 26.8359 12.3982 26.1037C11.666 25.3715 11.666 24.193 11.666 21.8359L11.666 20.1693" stroke="#26B14D" stroke-width="2" stroke-linecap="round"/>
<path d="M20.6754 23.8996C20.3428 24.3605 19.6566 24.3605 19.324 23.8996L17.3446 21.1569C16.9469 20.6058 17.3407 19.8359 18.0204 19.8359H21.9791C22.6587 19.8359 23.0525 20.6058 22.6548 21.1569L20.6754 23.8996Z" fill="#26B14D"/>
<path fill-rule="evenodd" clip-rule="evenodd" d="M20 12.1699C20.5523 12.1699 21 12.6176 21 13.1699V21.5033C21 22.0555 20.5523 22.5033 20 22.5033C19.4477 22.5033 19 22.0555 19 21.5033V13.1699C19 12.6176 19.4477 12.1699 20 12.1699Z" fill="#26B14D"/>
</svg>
