<svg width="20" height="20" viewBox="0 0 20 20" fill="none" xmlns="http://www.w3.org/2000/svg">
<path d="M18.3327 10.1693V11.8359C18.3327 14.193 18.3327 15.3715 17.6004 16.1037C16.8682 16.8359 15.6897 16.8359 13.3327 16.8359H6.66602C4.30899 16.8359 3.13048 16.8359 2.39825 16.1037C1.66602 15.3715 1.66602 14.193 1.66602 11.8359L1.66602 10.1693" stroke="#FF5555" stroke-width="2" stroke-linecap="round"/>
<path d="M10.6754 2.51445C10.3428 2.05357 9.65658 2.05357 9.32397 2.51445L7.34462 5.25712C6.94687 5.80826 7.34069 6.57812 8.02036 6.57812H11.9791C12.6587 6.57812 13.0525 5.80826 12.6548 5.25712L10.6754 2.51445Z" fill="#FF5555"/>
<path fill-rule="evenodd" clip-rule="evenodd" d="M10 14.2461C10.5523 14.2461 11 13.7984 11 13.2461V4.91276C11 4.36048 10.5523 3.91276 10 3.91276C9.44772 3.91276 9 4.36048 9 4.91276V13.2461C9 13.7984 9.44772 14.2461 10 14.2461Z" fill="#FF5555"/>
</svg>
