<svg width="40" height="40" viewBox="0 0 40 40" fill="none" xmlns="http://www.w3.org/2000/svg">
<rect width="40" height="40" rx="20" fill="#FFC700" fill-opacity="0.16"/>
<path d="M28.3327 20.1693V21.8359C28.3327 24.193 28.3327 25.3715 27.6004 26.1037C26.8682 26.8359 25.6897 26.8359 23.3327 26.8359H16.666C14.309 26.8359 13.1305 26.8359 12.3982 26.1037C11.666 25.3715 11.666 24.193 11.666 21.8359L11.666 20.1693" stroke="#C79F11" stroke-width="2" stroke-linecap="round"/>
<path d="M20.6754 12.5145C20.3428 12.0536 19.6566 12.0536 19.324 12.5145L17.3446 15.2571C16.9469 15.8083 17.3407 16.5781 18.0204 16.5781H21.9791C22.6587 16.5781 23.0525 15.8083 22.6548 15.2571L20.6754 12.5145Z" fill="#C79F11"/>
<path fill-rule="evenodd" clip-rule="evenodd" d="M20 24.2461C20.5523 24.2461 21 23.7984 21 23.2461V14.9128C21 14.3605 20.5523 13.9128 20 13.9128C19.4477 13.9128 19 14.3605 19 14.9128V23.2461C19 23.7984 19.4477 24.2461 20 24.2461Z" fill="#C79F11"/>
</svg>
