<svg width="22" height="22" viewBox="0 0 22 22" fill="none" xmlns="http://www.w3.org/2000/svg">
<rect x="1" y="1" width="20" height="20" rx="10" fill="#FF060A"/>
<rect x="1" y="1" width="20" height="20" rx="10" stroke="#F5F7FB" stroke-width="2"/>
<g clip-path="url(#clip0_232_31956)">
<path d="M15.6172 9.01263C15.1484 8.57982 14.5 7.91888 13.9719 7.45013L13.9406 7.42826C13.8886 7.3865 13.83 7.35376 13.7672 7.33138C12.4938 7.09388 6.56719 5.98607 6.45156 6.00013C6.41916 6.00467 6.3882 6.01642 6.36094 6.03451L6.33125 6.05795C6.29469 6.09507 6.26693 6.13992 6.25 6.1892L6.24219 6.20951V6.32045V6.33763C6.90938 8.19545 9.54375 14.2814 10.0625 15.7095C10.0938 15.8064 10.1531 15.9908 10.2641 16.0001H10.2891C10.3484 16.0001 10.6016 15.6658 10.6016 15.6658C10.6016 15.6658 15.1266 10.1783 15.5844 9.59388C15.6436 9.5219 15.696 9.44447 15.7406 9.36263C15.752 9.2986 15.7467 9.23271 15.725 9.17137C15.7034 9.11003 15.6662 9.05534 15.6172 9.01263ZM11.7625 9.6517L13.6938 8.05013L14.8266 9.09388L11.7625 9.6517ZM11.0125 9.54701L7.6875 6.82201L13.0672 7.8142L11.0125 9.54701ZM11.3125 10.2611L14.7156 9.71263L10.825 14.4001L11.3125 10.2611ZM7.23594 7.09388L10.7344 10.0626L10.2281 14.4033L7.23594 7.09388Z" fill="white"/>
</g>
<defs>
<clipPath id="clip0_232_31956">
<rect width="10" height="10" fill="white" transform="translate(6 6)"/>
</clipPath>
</defs>
</svg>
