<svg width="20" height="20" viewBox="0 0 20 20" fill="none" xmlns="http://www.w3.org/2000/svg">
<path fill-rule="evenodd" clip-rule="evenodd" d="M14.2721 14.273C16.2416 12.3035 16.5669 9.31166 15.2474 7.00459C15.076 6.70496 15.1365 6.3156 15.4167 6.11402V6.11402C15.6969 5.91244 16.0901 5.97505 16.2668 6.27155C17.9355 9.07104 17.566 12.7468 15.156 15.1569C13.7323 16.5805 11.8651 17.2926 10 17.2926V16.0426C11.5472 16.0426 13.0923 15.4528 14.2721 14.273Z" fill="white"/>
<path d="M6.25 17.3884C5.69445 17.0676 5.69444 16.2657 6.25 15.945L8.75 14.5016C9.30555 14.1809 10 14.5818 10 15.2233L10 18.11C10 18.7515 9.30556 19.1525 8.75 18.8317L6.25 17.3884Z" fill="white"/>
<path fill-rule="evenodd" clip-rule="evenodd" d="M5.7279 5.72799C3.75836 7.69752 3.4331 10.6893 4.75259 12.9964C4.92397 13.296 4.86353 13.6854 4.58333 13.887V13.887C4.30313 14.0885 3.90992 14.0259 3.73318 13.7294C2.06455 10.9299 2.43398 7.25414 4.84401 4.8441C6.26768 3.42044 8.13487 2.70842 10 2.70842L10 3.95842C8.45284 3.95842 6.90773 4.54816 5.7279 5.72799Z" fill="white"/>
<path d="M13.75 2.61164C14.3056 2.93239 14.3056 3.73427 13.75 4.05502L11.25 5.4984C10.6944 5.81915 10 5.41821 10 4.77671L10 1.88996C10 1.24846 10.6944 0.847519 11.25 1.16827L13.75 2.61164Z" fill="white"/>
</svg>
