<svg width="250" height="250" viewBox="0 0 250 250" fill="none" xmlns="http://www.w3.org/2000/svg">
<rect x="5" y="35" width="210" height="210" rx="105" fill="#50AF95"/>
<rect x="5" y="35" width="210" height="210" rx="105" stroke="#F5F7FB" stroke-width="10"/>
<path fill-rule="evenodd" clip-rule="evenodd" d="M120.173 143.38C119.605 143.421 116.669 143.593 110.121 143.593C104.912 143.593 101.214 143.44 99.9167 143.38C79.7879 142.515 64.7635 139.091 64.7635 134.992C64.7635 130.893 79.7879 127.474 99.9167 126.595V139.97C101.233 140.062 105.002 140.28 110.211 140.28C116.461 140.28 119.591 140.025 120.154 139.975V126.604C140.241 127.478 155.232 130.902 155.232 134.992C155.232 139.082 140.245 142.505 120.154 143.375L120.173 143.38ZM120.173 125.221V113.252H148.205V95H71.885V113.252H99.9119V125.216C77.1315 126.238 60 130.647 60 135.931C60 141.214 77.1315 145.619 99.9119 146.646V185H120.169V146.632C142.897 145.61 160 141.205 160 135.926C160 130.647 142.911 126.243 120.169 125.216L120.173 125.221Z" fill="white"/>
<rect x="145" y="5" width="100" height="100" rx="50" fill="#FF060A"/>
<rect x="145" y="5" width="100" height="100" rx="50" stroke="#F5F7FB" stroke-width="10"/>
<g clip-path="url(#clip0_4256_22244)">
<path d="M218.086 45.0632C215.742 42.8991 212.5 39.5944 209.859 37.2507L209.703 37.1413C209.443 36.9325 209.15 36.7688 208.836 36.6569C202.469 35.4694 172.836 29.9304 172.258 30.0007C172.096 30.0234 171.941 30.0821 171.805 30.1725L171.656 30.2897C171.473 30.4754 171.335 30.6996 171.25 30.946L171.211 31.0475V31.6022V31.6882C174.547 40.9772 187.719 71.4069 190.312 78.5475C190.469 79.0319 190.766 79.9538 191.32 80.0007H191.445C191.742 80.0007 193.008 78.3288 193.008 78.3288C193.008 78.3288 215.633 50.8913 217.922 47.9694C218.218 47.6095 218.48 47.2224 218.703 46.8132C218.76 46.493 218.733 46.1635 218.625 45.8568C218.517 45.5502 218.331 45.2767 218.086 45.0632ZM198.812 48.2585L208.469 40.2507L214.133 45.4694L198.812 48.2585ZM195.062 47.735L178.437 34.11L205.336 39.071L195.062 47.735ZM196.562 51.3054L213.578 48.5632L194.125 72.0007L196.562 51.3054ZM176.18 35.4694L193.672 50.3132L191.141 72.0163L176.18 35.4694Z" fill="white"/>
</g>
<defs>
<clipPath id="clip0_4256_22244">
<rect width="50" height="50" fill="white" transform="translate(170 30)"/>
</clipPath>
</defs>
</svg>
