<svg width="250" height="250" viewBox="0 0 250 250" fill="none" xmlns="http://www.w3.org/2000/svg">
<rect x="5" y="35" width="210" height="210" rx="105" fill="#50AF95"/>
<rect x="5" y="35" width="210" height="210" rx="105" stroke="#F5F7FB" stroke-width="10"/>
<path fill-rule="evenodd" clip-rule="evenodd" d="M120.173 143.38C119.605 143.421 116.669 143.593 110.121 143.593C104.912 143.593 101.214 143.44 99.9167 143.38C79.7879 142.515 64.7635 139.091 64.7635 134.992C64.7635 130.893 79.7879 127.474 99.9167 126.595V139.97C101.233 140.062 105.002 140.28 110.211 140.28C116.461 140.28 119.591 140.025 120.154 139.975V126.604C140.241 127.478 155.232 130.902 155.232 134.992C155.232 139.082 140.245 142.505 120.154 143.375L120.173 143.38ZM120.173 125.221V113.252H148.205V95H71.885V113.252H99.9119V125.216C77.1315 126.238 60 130.647 60 135.931C60 141.214 77.1315 145.619 99.9119 146.646V185H120.169V146.632C142.897 145.61 160 141.205 160 135.926C160 130.647 142.911 126.243 120.169 125.216L120.173 125.221Z" fill="white"/>
<rect x="145" y="5" width="100" height="100" rx="50" fill="#627EEA"/>
<rect x="145" y="5" width="100" height="100" rx="50" stroke="#F5F7FB" stroke-width="10"/>
<g clip-path="url(#clip0_4256_22250)">
<path d="M195.007 20L194.57 21.5952V67.8803L195.007 68.3488L215.001 55.6491L195.007 20Z" fill="#C1CCF7"/>
<path d="M194.994 20L175 55.6491L194.994 68.3488V45.8833V20Z" fill="white"/>
<path d="M194.992 72.4197L194.746 72.7425V89.2299L194.992 90.0026L214.998 59.7266L194.992 72.4197Z" fill="#C1CCF7"/>
<path d="M194.994 90.0026V72.4197L175 59.7266L194.994 90.0026Z" fill="white"/>
<path d="M195 68.3444L214.994 55.6447L195 45.8789V68.3444Z" fill="#8198EE"/>
<path d="M175 55.6447L194.994 68.3444V45.8789L175 55.6447Z" fill="#C1CCF7"/>
</g>
<defs>
<clipPath id="clip0_4256_22250">
<rect width="40" height="70" fill="white" transform="translate(175 20)"/>
</clipPath>
</defs>
</svg>
