<svg width="24" height="24" viewBox="0 0 24 24" fill="none" xmlns="http://www.w3.org/2000/svg">
<path fill-rule="evenodd" clip-rule="evenodd" d="M14.3718 8.85963C13.6104 9.0405 12.816 9.13623 11.9993 9.13623C11.1826 9.13623 10.3882 9.0405 9.62681 8.85963C10.1103 7.35947 10.9309 6.01064 11.9993 4.90239C13.0677 6.01064 13.8883 7.35947 14.3718 8.85963ZM15.547 8.50416C15.0094 6.82459 14.0947 5.31369 12.9025 4.07104C13.274 3.76801 13.6671 3.49057 14.0793 3.2414C13.4965 3.10353 12.8918 3.02232 12.2714 3.00391C12.1796 3.07641 12.0889 3.15028 11.9993 3.2255C11.9098 3.15028 11.8191 3.07641 11.7272 3.00391C11.1068 3.02234 10.5022 3.10356 9.91941 3.24143C10.3315 3.49059 10.7247 3.76802 11.0961 4.07104C9.90396 5.31369 8.98927 6.82459 8.45162 8.50416C7.15269 8.02372 5.978 7.28707 4.98889 6.35555C4.73001 6.67668 4.49274 7.01597 4.2793 7.37121C5.38844 8.38364 6.69733 9.18093 8.13996 9.69708C7.98813 10.441 7.90841 11.2111 7.90841 11.9999C7.90841 12.7886 7.98813 13.5588 8.13996 14.3027C6.69733 14.8188 5.38844 15.6161 4.2793 16.6285C4.49274 16.9838 4.73001 17.3231 4.98889 17.6442C5.978 16.7127 7.15269 15.976 8.45162 15.4956C8.98927 17.1751 9.90396 18.686 11.0961 19.9287C10.7247 20.2317 10.3315 20.5091 9.9194 20.7583C10.5022 20.8962 11.1068 20.9774 11.7272 20.9958C11.8191 20.9233 11.9098 20.8495 11.9993 20.7742C12.0889 20.8495 12.1796 20.9233 12.2714 20.9958C12.8918 20.9774 13.4965 20.8962 14.0793 20.7583C13.6671 20.5092 13.274 20.2317 12.9025 19.9287C14.0947 18.686 15.0094 17.1751 15.547 15.4956C16.846 15.976 18.0207 16.7127 19.0098 17.6443C19.2687 17.3231 19.506 16.9839 19.7194 16.6286C18.6103 15.6161 17.3013 14.8188 15.8587 14.3027C16.0105 13.5588 16.0902 12.7886 16.0902 11.9999C16.0902 11.2111 16.0105 10.441 15.8587 9.69708C17.3013 9.18092 18.6103 8.38359 19.7194 7.37111C19.506 7.01588 19.2687 6.67659 19.0098 6.35546C18.0207 7.28702 16.846 8.02371 15.547 8.50416ZM14.6771 10.0488C13.818 10.2546 12.9214 10.3635 11.9993 10.3635C11.0772 10.3635 10.1806 10.2546 9.32156 10.0488C9.19957 10.6804 9.13568 11.3327 9.13568 11.9999C9.13568 12.6671 9.19957 13.3194 9.32156 13.9509C10.1806 13.7452 11.0772 13.6362 11.9993 13.6362C12.9214 13.6362 13.818 13.7452 14.6771 13.9509C14.7991 13.3193 14.863 12.6671 14.863 11.9999C14.863 11.3327 14.7991 10.6804 14.6771 10.0488ZM14.3718 15.1401C13.6104 14.9592 12.816 14.8635 11.9993 14.8635C11.1826 14.8635 10.3882 14.9592 9.62681 15.1401C10.1103 16.6403 10.9309 17.9891 11.9993 19.0973C13.0677 17.9891 13.8883 16.6403 14.3718 15.1401Z" fill="white"/>
<circle cx="12" cy="12" r="8.25" stroke="white" stroke-width="1.5"/>
</svg>
